<?xml version="1.0" encoding="utf-8"?>
<!-- Generator: Adobe Illustrator 16.0.0, SVG Export Plug-In . SVG Version: 6.00 Build 0)  -->
<!DOCTYPE svg PUBLIC "-//W3C//DTD SVG 1.1//EN" "http://www.w3.org/Graphics/SVG/1.1/DTD/svg11.dtd">
<svg version="1.1" id="Layer_1" xmlns="http://www.w3.org/2000/svg" xmlns:xlink="http://www.w3.org/1999/xlink" x="0px" y="0px"
	 width="193px" height="32px" viewBox="0 0 193 32" enable-background="new 0 0 193 32" xml:space="preserve">
<g>
	<path fill="#FFFFFF" d="M0,31.959v-32h8.481v3.764H4.547v24.472h3.934v3.764H0z"/>
	<path fill="#FFFFFF" d="M16.4-0.041v9.179c1.544-1.805,3.389-2.708,5.535-2.708c1.102,0,2.095,0.204,2.98,0.613
		c0.885,0.409,1.553,0.931,2.001,1.567s0.755,1.34,0.919,2.112c0.165,0.772,0.247,1.97,0.247,3.593v10.61h-4.786v-9.554
		c0-1.896-0.091-3.1-0.272-3.61c-0.182-0.511-0.502-0.917-0.962-1.218c-0.46-0.301-1.036-0.452-1.729-0.452
		c-0.795,0-1.504,0.193-2.129,0.579c-0.625,0.386-1.082,0.968-1.371,1.746c-0.29,0.778-0.434,1.927-0.434,3.449v9.06h-4.786V-0.041
		H16.4z"/>
	<path fill="#FFFFFF" d="M36.513,12.357l-4.343-0.783c0.488-1.749,1.328-3.043,2.521-3.883c1.192-0.84,2.963-1.26,5.313-1.26
		c2.134,0,3.724,0.252,4.769,0.758c1.044,0.505,1.78,1.146,2.205,1.924c0.426,0.778,0.639,2.206,0.639,4.283l-0.051,5.586
		c0,1.59,0.077,2.762,0.23,3.517s0.44,1.563,0.86,2.427h-4.734c-0.125-0.318-0.278-0.789-0.46-1.414
		c-0.08-0.283-0.136-0.471-0.17-0.562c-0.817,0.795-1.691,1.392-2.623,1.788c-0.931,0.398-1.924,0.596-2.98,0.596
		c-1.862,0-3.329-0.504-4.402-1.516c-1.073-1.01-1.609-2.287-1.609-3.831c0-1.022,0.244-1.933,0.732-2.733s1.172-1.414,2.052-1.839
		s2.148-0.798,3.806-1.116c2.237-0.42,3.787-0.812,4.649-1.175v-0.477c0-0.919-0.227-1.575-0.681-1.967s-1.312-0.588-2.572-0.588
		c-0.852,0-1.516,0.167-1.992,0.502C37.194,10.93,36.808,11.518,36.513,12.357z M42.917,16.241
		c-0.613,0.204-1.584,0.448-2.912,0.732c-1.329,0.284-2.197,0.563-2.606,0.834c-0.624,0.443-0.937,1.006-0.937,1.687
		c0,0.67,0.25,1.249,0.75,1.737s1.135,0.732,1.907,0.732c0.863,0,1.686-0.284,2.469-0.852c0.579-0.432,0.959-0.959,1.141-1.584
		c0.125-0.408,0.188-1.187,0.188-2.333V16.241z"/>
	<path fill="#FFFFFF" d="M68.104,12.187l-4.718,0.852c-0.159-0.942-0.519-1.652-1.081-2.128c-0.562-0.477-1.292-0.715-2.188-0.715
		c-1.192,0-2.143,0.412-2.853,1.234c-0.709,0.823-1.064,2.2-1.064,4.13c0,2.146,0.36,3.662,1.082,4.547
		c0.721,0.886,1.688,1.328,2.903,1.328c0.909,0,1.652-0.259,2.231-0.774c0.579-0.518,0.988-1.405,1.227-2.666l4.7,0.801
		c-0.488,2.157-1.425,3.787-2.81,4.888c-1.385,1.102-3.241,1.651-5.569,1.651c-2.646,0-4.754-0.834-6.327-2.503
		c-1.573-1.669-2.359-3.979-2.359-6.931c0-2.986,0.789-5.311,2.367-6.974c1.578-1.663,3.713-2.495,6.403-2.495
		c2.203,0,3.954,0.474,5.254,1.422C66.603,8.801,67.537,10.246,68.104,12.187z"/>
	<path fill="#FFFFFF" d="M71.562,24.926V-0.041h4.786v13.25L81.95,6.84h5.893l-6.182,6.607l6.625,11.479h-5.16l-4.547-8.124
		l-2.231,2.333v5.79H71.562z"/>
	<path fill="#FFFFFF" d="M94.706,12.357l-4.343-0.783c0.488-1.749,1.329-3.043,2.521-3.883c1.192-0.84,2.963-1.26,5.314-1.26
		c2.135,0,3.724,0.252,4.768,0.758c1.045,0.505,1.78,1.146,2.206,1.924s0.639,2.206,0.639,4.283l-0.052,5.586
		c0,1.59,0.077,2.762,0.23,3.517s0.439,1.563,0.86,2.427h-4.735c-0.124-0.318-0.277-0.789-0.459-1.414
		c-0.08-0.283-0.137-0.471-0.17-0.562c-0.818,0.795-1.692,1.392-2.623,1.788c-0.932,0.398-1.925,0.596-2.98,0.596
		c-1.862,0-3.33-0.504-4.402-1.516c-1.073-1.01-1.609-2.287-1.609-3.831c0-1.022,0.244-1.933,0.732-2.733s1.172-1.414,2.052-1.839
		s2.148-0.798,3.806-1.116c2.236-0.42,3.786-0.812,4.649-1.175v-0.477c0-0.919-0.227-1.575-0.682-1.967
		c-0.454-0.392-1.311-0.588-2.571-0.588c-0.852,0-1.516,0.167-1.993,0.502S95.001,11.518,94.706,12.357z M101.109,16.241
		c-0.613,0.204-1.584,0.448-2.912,0.732c-1.329,0.284-2.197,0.563-2.606,0.834c-0.625,0.443-0.937,1.006-0.937,1.687
		c0,0.67,0.25,1.249,0.749,1.737s1.136,0.732,1.908,0.732c0.862,0,1.687-0.284,2.47-0.852c0.578-0.432,0.959-0.959,1.141-1.584
		c0.125-0.408,0.188-1.187,0.188-2.333V16.241z"/>
	<path fill="#FFFFFF" d="M118.82,6.84v3.814h-3.27v7.289c0,1.477,0.031,2.336,0.094,2.58s0.205,0.445,0.426,0.605
		c0.221,0.158,0.491,0.238,0.809,0.238c0.443,0,1.084-0.154,1.925-0.461l0.409,3.713c-1.113,0.477-2.373,0.715-3.781,0.715
		c-0.863,0-1.641-0.145-2.333-0.434s-1.2-0.664-1.524-1.124c-0.323-0.46-0.548-1.081-0.673-1.864
		c-0.103-0.557-0.153-1.681-0.153-3.373v-7.885h-2.197V6.84h2.197V3.247l4.803-2.793V6.84H118.82z"/>
	<path fill="#FFFFFF" d="M126.723,24.926h-4.785V6.84h4.445v2.571c0.76-1.215,1.444-2.015,2.052-2.401
		c0.607-0.386,1.297-0.579,2.069-0.579c1.09,0,2.14,0.301,3.15,0.902l-1.482,4.172c-0.806-0.522-1.555-0.783-2.248-0.783
		c-0.669,0-1.236,0.185-1.702,0.554c-0.466,0.369-0.832,1.036-1.099,2.001c-0.267,0.965-0.4,2.986-0.4,6.063V24.926z"/>
	<path fill="#FFFFFF" d="M139.291,12.357l-4.343-0.783c0.488-1.749,1.329-3.043,2.521-3.883c1.192-0.84,2.963-1.26,5.313-1.26
		c2.135,0,3.724,0.252,4.769,0.758c1.045,0.505,1.779,1.146,2.205,1.924s0.639,2.206,0.639,4.283l-0.051,5.586
		c0,1.59,0.076,2.762,0.23,3.517c0.152,0.755,0.439,1.563,0.859,2.427h-4.734c-0.125-0.318-0.277-0.789-0.459-1.414
		c-0.08-0.283-0.137-0.471-0.171-0.562c-0.817,0.795-1.692,1.392-2.622,1.788c-0.932,0.398-1.926,0.596-2.98,0.596
		c-1.862,0-3.33-0.504-4.402-1.516c-1.073-1.01-1.609-2.287-1.609-3.831c0-1.022,0.244-1.933,0.732-2.733s1.172-1.414,2.052-1.839
		s2.148-0.798,3.806-1.116c2.236-0.42,3.787-0.812,4.649-1.175v-0.477c0-0.919-0.228-1.575-0.681-1.967
		c-0.455-0.392-1.312-0.588-2.572-0.588c-0.852,0-1.516,0.167-1.992,0.502S139.586,11.518,139.291,12.357z M145.694,16.241
		c-0.612,0.204-1.583,0.448-2.912,0.732c-1.328,0.284-2.196,0.563-2.605,0.834c-0.624,0.443-0.937,1.006-0.937,1.687
		c0,0.67,0.25,1.249,0.749,1.737s1.136,0.732,1.907,0.732c0.863,0,1.687-0.284,2.47-0.852c0.579-0.432,0.96-0.959,1.142-1.584
		c0.125-0.408,0.187-1.187,0.187-2.333V16.241z"/>
	<path fill="#FFFFFF" d="M155.112,4.387v-4.428h4.786v4.428H155.112z M155.112,24.926V6.84h4.786v18.086H155.112z"/>
	<path fill="#FFFFFF" d="M181.254,24.926h-4.785v-9.23c0-1.953-0.103-3.216-0.307-3.789c-0.205-0.573-0.537-1.019-0.996-1.337
		c-0.461-0.318-1.014-0.477-1.661-0.477c-0.829,0-1.572,0.228-2.231,0.682c-0.658,0.454-1.109,1.056-1.354,1.805
		c-0.244,0.749-0.365,2.134-0.365,4.155v8.191h-4.786V6.84h4.444v2.657c1.578-2.044,3.565-3.065,5.961-3.065
		c1.057,0,2.021,0.19,2.896,0.57s1.536,0.866,1.983,1.456c0.449,0.59,0.762,1.26,0.938,2.01c0.176,0.749,0.264,1.822,0.264,3.219
		V24.926z"/>
	<path fill="#FFFFFF" d="M192.732-0.041v32h-8.48v-3.764h3.934V3.689h-3.934v-3.729H192.732z"/>
</g>
</svg>
